# xmcd
#
# Track frame offsets: 
#        150
#        31925
#        48340
#        66284
#        83112
#        98323
#        116026
#        132533
#        158048
#        174263
#        200443
#        226278
#        241552
#        263829
#        281104
#        299974
#        312254
#        325942
#        345362
#
# Disc length: 4775 seconds
#
# Revision: 2
# Processed by: cddbd v1.5.2PL0 Copyright (c) Steve Scherf et al.
# Submitted via: ExactAudioCopy v1.3
#
DISCID=0b12a513
DTITLE=Various Artist - Akella Presents - vol.111 - Women's Blues-Roc
DTITLE=k  CD1
DYEAR=2017
DGENRE=Blues
TTITLE0=Hurricane Ruth - Born On The River
TTITLE1=Jocelyn and Chris Arndt - Home
TTITLE2=Bare Bones Boogie Band - Sittin' Here Sewin'
TTITLE3=Mojo Juju - They Come and They Go
TTITLE4=Tommie Lee Bradley - Sometimes You Just Gotta Hurt
TTITLE5=Deb Ryder - Blink Of An Eye
TTITLE6=Smokin' Aces - Night Riders
TTITLE7=Blue Touch - I Can't Quit You Baby
TTITLE8=Mary-Ann Brandon - Getting Out Of Rockwood
TTITLE9=Sena Ehrhardt - If Trouble Was Money
TTITLE10=Nikki Lamborn - The Living Tree
TTITLE11=Malaya Blue - Heartsick
TTITLE12=Kathy Jo and The Bluzification Band - On A Run
TTITLE13=Meena Cryle and The Chris Fillmore Band - Enough Is Enough
TTITLE14=Samantha Fish - We Ain't Gonna Get Out Alive
TTITLE15=Cassie Taylor - Satisfy My Soul
TTITLE16=Roux - Top of the Sky
TTITLE17=Erja Lyytinen - Voracious Love
TTITLE18=Maria Aurigema - Sweet Baby
EXTD=
EXTT0=
EXTT1=
EXTT2=
EXTT3=
EXTT4=
EXTT5=
EXTT6=
EXTT7=
EXTT8=
EXTT9=
EXTT10=
EXTT11=
EXTT12=
EXTT13=
EXTT14=
EXTT15=
EXTT16=
EXTT17=
EXTT18=
PLAYORDER=
